<svg xmlns="http://www.w3.org/2000/svg" width="1600" height="1100" viewBox="0 0 1600 1100" fill="none">
  <rect width="1600" height="1100" fill="#FFFFFF"/>
  <rect x="120" y="120" width="1360" height="860" rx="36" stroke="#1A1A1A" stroke-width="4"/>
  <rect x="180" y="190" width="240" height="46" rx="23" fill="#1A1A1A"/>
  <rect x="480" y="204" width="180" height="18" rx="9" fill="#C9C9C9"/>
  <rect x="1270" y="196" width="150" height="34" rx="17" fill="#EE2A7B"/>
  <rect x="180" y="330" width="380" height="520" rx="24" fill="#F7F7F5"/>
  <rect x="220" y="380" width="300" height="320" rx="20" fill="#C9B8FF"/>
  <rect x="220" y="740" width="300" height="60" rx="16" fill="#1A1A1A"/>
  <rect x="600" y="330" width="380" height="520" rx="24" fill="#F7F7F5"/>
  <rect x="640" y="380" width="300" height="320" rx="20" fill="#FFE9A8"/>
  <rect x="640" y="740" width="300" height="60" rx="16" fill="#EE2A7B"/>
  <rect x="1020" y="330" width="380" height="520" rx="24" fill="#F7F7F5"/>
  <rect x="1060" y="380" width="300" height="320" rx="20" fill="#A8F0D0"/>
  <rect x="1060" y="740" width="300" height="60" rx="16" fill="#1A1A1A"/>
</svg>
